<svg xmlns="http://www.w3.org/2000/svg" width="888" height="200" viewBox="0 0 888 200">
  <path fill="#2E3440" d="M438.401 64.262c-5.578-8.546-16.097-12.858-23.938-14.972-8.438-2.271-15.459-2.55-15.753-2.563h-55.34a.837.837 0 0 0-.156 1.656c17.563 3.379 20.313 10.271 20.334 10.332a.834.834 0 0 0 .788.562h10.943v37.046c-1.466.477-2.544 2-2.544 3.811 0 1.002-.219 1.453-.494 2.023-.306.641-.656 1.367-.656 2.75 0 1.385.351 2.109.656 2.75.275.57.494 1.023.494 2.025 0 1.004-.219 1.453-.494 2.025-.306.641-.656 1.365-.656 2.75s.351 2.109.656 2.75c.275.568.494 1.021.494 2.025 0 1.002-.219 1.453-.494 2.025-.306.639-.656 1.365-.656 2.748 0 1.385.351 2.109.656 2.75.275.572.494 1.023.494 2.025 0 1.004-.219 1.457-.494 2.025-.306.641-.656 1.365-.656 2.75 0 1.387.351 2.113.656 2.75.275.572.494 1.025.494 2.027v.039c.04 2.146 1.6 3.877 3.509 3.877h6.609c1.938 0 3.513-1.777 3.513-3.965v-38.152c0-1.844-1.118-3.391-2.631-3.834v-37.02h13.925a.947.947 0 0 0 .162-.015c4.179-.819 8.347-1.235 12.388-1.235 3.412 0 7.303.429 10.125.903 10.712 1.953 16.787 6.4 16.862 6.456a.823.823 0 0 0 1.071-.06.83.83 0 0 0 .133-1.064zm-58.724-13.3c1.037 0 1.881.844 1.881 1.881a1.883 1.883 0 0 1-1.881 1.879 1.882 1.882 0 0 1-1.878-1.879c0-1.037.844-1.881 1.878-1.881z"/>
  <path fill="#88C0D0" d="M384.695 100.134v38.152c0 1.266-.825 2.295-1.84 2.295h-6.609c-1.015 0-1.84-1.029-1.84-2.295v-.023c-.012-1.338-.354-2.049-.656-2.678-.275-.572-.492-1.023-.492-2.025 0-1.004.217-1.455.491-2.027.309-.639.657-1.365.657-2.75s-.349-2.109-.657-2.75c-.274-.57-.491-1.021-.491-2.025 0-1.002.217-1.453.491-2.025.309-.639.657-1.365.657-2.75 0-1.383-.349-2.109-.656-2.748-.275-.572-.492-1.023-.492-2.027 0-1.002.217-1.453.491-2.023.309-.641.657-1.367.657-2.752 0-1.383-.349-2.109-.657-2.748-.274-.57-.491-1.021-.491-2.025s.217-1.455.491-2.025c.309-.641.657-1.365.657-2.748 0-1.266.825-2.297 1.84-2.297h4.123v29.873a.836.836 0 0 0 1.672 0V97.837h.814c1.015 0 1.84 1.031 1.84 2.297z"/>
  <path fill="#4C566A" d="M376.951 59.276h5.115v36.891h-5.115z"/>
  <path fill="#D8DEE9" d="M434.235 61.702c-2.347-2.459-5.159-4.453-8.103-6.064a47.918 47.918 0 0 0-5.216-2.447 60.644 60.644 0 0 0-6.891-2.287 79.41 79.41 0 0 0-10.091-2c-3.063-.406-5.084-.498-5.271-.504h-48.362c10.491 3.2 13.718 7.645 14.562 9.207h32.716a68.6 68.6 0 0 1 5.234-.811.604.604 0 0 1-.013-.115V52.04c0-.463.375-.834.837-.834.46 0 .835.371.835.834v4.584a66.768 66.768 0 0 1 3.81-.234v-3.037a.834.834 0 1 1 1.671 0v3.006l.257-.002c1.222 0 2.406.037 3.553.105v-2.1a.835.835 0 1 1 1.672 0v2.219a58.46 58.46 0 0 1 3.813.456v-2.022a.834.834 0 0 1 1.669 0v2.307c1.344.247 2.615.535 3.81.844v-1.484c0-.463.375-.834.837-.834a.832.832 0 0 1 .835.834v1.95c3.268.968 5.896 2.093 7.836 3.07zm-56.436-8.859c0-1.037.844-1.881 1.878-1.881 1.037 0 1.881.844 1.881 1.881a1.883 1.883 0 0 1-1.881 1.879 1.882 1.882 0 0 1-1.878-1.879z"/>
  <path fill="#2E3440" d="M379.677 49.294a3.553 3.553 0 0 0-3.55 3.549 3.556 3.556 0 0 0 3.55 3.551 3.557 3.557 0 0 0 3.553-3.551 3.556 3.556 0 0 0-3.553-3.549zm0 5.428a1.882 1.882 0 0 1-1.878-1.879c0-1.037.844-1.881 1.878-1.881 1.037 0 1.881.844 1.881 1.881a1.883 1.883 0 0 1-1.881 1.879z"/>
  <path fill="none" d="M389.695 102.228h155.768v51.045H389.695z"/>
  <path d="M520.679 102.227h2.128v26.488l17.752-15.289h3.08l-12.6 10.752 13.495 18.033h-2.912l-12.264-16.408-6.552 5.543v10.865h-2.128v-39.984zm-7.504 20.103c-.392-5.096-4.536-7.727-9.744-7.727-7.224 0-11.088 6.383-11.088 12.936 0 7.783 3.641 13.496 11.088 13.496 5.376 0 9.297-3.697 10.024-8.961h2.128c-.952 6.889-5.936 10.809-12.152 10.809-9.352 0-13.216-7.336-13.216-15.344s4.704-14.785 13.216-14.785c6.217 0 11.257 3.025 11.872 9.576h-2.128zm-30.576-14.336v-5.768h2.128v5.768h-2.128zm0 34.217v-28.785h2.128v28.785h-2.128zm-29.007-22.176h.111c.896-2.857 4.145-7.281 10.473-7.281 8.848 0 12.936 7 12.936 15.121 0 8.736-4.145 15.008-12.936 15.008-4.761 0-8.793-2.016-10.473-6.664h-.111v16.295h-2.129v-39.088h2.129v6.609zm21.39 7.84c0-6.553-3.079-13.271-10.807-13.271-7.672 0-10.528 6.439-10.528 13.271s2.407 13.16 10.528 13.16c7.505 0 10.807-6.049 10.807-13.16zm-52.247.223c-.112 6.777 3.472 12.938 10.584 12.938 5.432 0 9.296-3.248 10.304-8.568h2.128c-1.12 6.719-5.6 10.416-12.432 10.416-8.4 0-12.824-6.607-12.712-14.561-.112-7.896 4.032-15.568 12.712-15.568 9.016 0 13.048 7.113 12.655 15.344h-23.239zm21.112-1.848c-.112-6.047-3.92-11.646-10.528-11.646-6.384 0-10.136 5.936-10.584 11.646h21.112zm-29.344-3.92c-.392-5.096-4.536-7.727-9.744-7.727-7.224 0-11.088 6.383-11.088 12.936 0 7.783 3.64 13.496 11.088 13.496 5.376 0 9.296-3.697 10.024-8.961h2.128c-.952 6.889-5.936 10.809-12.152 10.809-9.352 0-13.216-7.336-13.216-15.344s4.704-14.785 13.216-14.785c6.216 0 11.256 3.025 11.872 9.576h-2.128z" fill="#2E3440"/>
</svg>
