<svg xmlns="http://www.w3.org/2000/svg" width="640" height="640" viewBox="0 0 640 640">
  <path fill="#2E3440" d="M589.278 166.786c-29.748-45.583-85.848-68.582-127.663-79.849-45-12.117-82.45-13.599-84.016-13.666H82.454a4.466 4.466 0 0 0-4.433 4.033 4.455 4.455 0 0 0 3.6 4.8c93.666 18.017 108.332 54.783 108.449 55.099.616 1.8 2.316 3 4.2 3h58.366v197.581c-7.816 2.533-13.567 10.666-13.567 20.315 0 5.35-1.167 7.751-2.633 10.801-1.633 3.416-3.5 7.283-3.5 14.666s1.867 11.25 3.5 14.666c1.466 3.034 2.633 5.451 2.633 10.801s-1.167 7.749-2.633 10.799c-1.633 3.418-3.5 7.283-3.5 14.668 0 7.383 1.867 11.25 3.5 14.666 1.466 3.032 2.633 5.449 2.633 10.799s-1.167 7.751-2.633 10.801c-1.633 3.416-3.5 7.283-3.5 14.666s1.867 11.25 3.5 14.666c1.466 3.05 2.633 5.451 2.633 10.801s-1.167 7.767-2.633 10.799c-1.633 3.416-3.5 7.283-3.5 14.666 0 7.4 1.867 11.268 3.5 14.668 1.466 3.05 2.633 5.466 2.633 10.815v.2c.216 11.45 8.534 20.683 18.716 20.683h35.25c10.333 0 18.733-9.481 18.733-21.148V358.099c0-9.832-5.967-18.082-14.033-20.448V140.203H372c.301 0 .584-.033.867-.083 22.283-4.367 44.516-6.583 66.065-6.583 18.199 0 38.949 2.284 53.999 4.817 57.132 10.417 89.532 34.133 89.933 34.433.799.6 1.749.9 2.682.9a4.419 4.419 0 0 0 3.034-1.216 4.445 4.445 0 0 0 .698-5.685zM276.084 95.854c5.533 0 10.033 4.5 10.033 10.033 0 5.517-4.5 10.017-10.033 10.017-5.517 0-10.016-4.5-10.016-10.017 0-5.533 4.499-10.033 10.016-10.033z"/>
  <path fill="#88C0D0" d="M302.852 358.098v203.479c0 6.751-4.402 12.242-9.813 12.242h-35.252c-5.41 0-9.811-5.491-9.811-12.242l-.001-.124c-.064-7.132-1.889-10.926-3.502-14.28-1.465-3.047-2.623-5.452-2.623-10.804s1.157-7.757 2.622-10.804c1.642-3.415 3.504-7.285 3.504-14.668 0-7.385-1.861-11.253-3.504-14.668-1.465-3.043-2.622-5.449-2.622-10.801 0-5.35 1.157-7.757 2.622-10.802 1.642-3.413 3.504-7.282 3.504-14.666 0-7.383-1.861-11.25-3.503-14.665-1.465-3.043-2.623-5.452-2.623-10.804s1.157-7.755 2.622-10.801c1.642-3.414 3.504-7.283 3.504-14.667 0-7.383-1.861-11.252-3.504-14.665-1.465-3.043-2.622-5.449-2.622-10.801 0-5.348 1.157-7.753 2.622-10.797 1.642-3.415 3.504-7.282 3.504-14.664 0-6.75 4.401-12.243 9.811-12.243h21.993v159.318a4.455 4.455 0 0 0 4.457 4.457 4.456 4.456 0 0 0 4.456-4.457V345.854h4.347c5.41 0 9.812 5.494 9.812 12.244z"/>
  <path fill="#4C566A" d="M261.546 140.2h27.281v196.743h-27.281z"/>
  <path fill="#D8DEE9" d="M567.063 153.136c-12.517-13.117-27.516-23.75-43.216-32.35-9.15-5.016-18.533-9.333-27.816-13.05-10.366-4.167-20.617-7.583-30.249-10.383-2.2-.633-4.366-1.25-6.5-1.816-20.315-5.466-39.266-8.733-53.816-10.667-16.333-2.167-27.115-2.65-28.116-2.684H119.42c55.949 17.067 73.165 40.767 77.666 49.1h174.48a363.96 363.96 0 0 1 27.917-4.317 3.598 3.598 0 0 1-.067-.617v-24.749a4.453 4.453 0 0 1 4.466-4.45 4.448 4.448 0 0 1 4.45 4.45v24.449a351.519 351.519 0 0 1 20.317-1.25v-16.2c0-2.467 2-4.466 4.466-4.466 2.468 0 4.45 2 4.45 4.466v16.033c.45 0 .918-.017 1.367-.017 6.517 0 12.833.2 18.949.566v-11.2a4.467 4.467 0 0 1 4.467-4.466c2.467 0 4.449 2 4.449 4.466v11.833a312.18 312.18 0 0 1 20.334 2.433v-10.78a4.45 4.45 0 0 1 4.449-4.451c.767 0 1.501.2 2.134.534a4.473 4.473 0 0 1 2.316 3.917v12.3a289.776 289.776 0 0 1 20.316 4.5v-7.917a4.453 4.453 0 0 1 4.467-4.45c.767 0 1.5.2 2.134.534a4.435 4.435 0 0 1 2.315 3.916v10.4c17.434 5.167 31.451 11.167 41.801 16.383zm-300.995-47.249c0-5.533 4.5-10.033 10.016-10.033 5.533 0 10.033 4.5 10.033 10.033 0 5.517-4.5 10.017-10.033 10.017-5.517 0-10.016-4.501-10.016-10.017z"/>
  <path fill="#2E3440" d="M276.084 86.954c-10.433 0-18.933 8.483-18.933 18.933 0 10.434 8.5 18.933 18.933 18.933 10.45 0 18.95-8.5 18.95-18.933-.017-10.45-8.5-18.933-18.95-18.933zm0 28.95c-5.517 0-10.016-4.5-10.016-10.017 0-5.533 4.5-10.033 10.016-10.033 5.533 0 10.033 4.5 10.033 10.033 0 5.516-4.5 10.017-10.033 10.017z"/>
</svg>
